HIERARCHY
ROOT mixamorig:Hips
{
	OFFSET 0.000000 201.639420 0.000000
	CHANNELS 6 Xposition Yposition Zposition Xrotation Yrotation Zrotation
	JOINT mixamorig:Spine
	{
		OFFSET 0.006200 19.524994 -2.481800
		CHANNELS 3 Xrotation Yrotation Zrotation
		JOINT mixamorig:Spine1
		{
			OFFSET -0.000900 22.835007 -2.825400
			CHANNELS 3 Xrotation Yrotation Zrotation
			JOINT mixamorig:Spine2
			{
				OFFSET -0.020600 26.552490 -3.193300
				CHANNELS 3 Xrotation Yrotation Zrotation
				JOINT mixamorig:Neck
				{
					OFFSET -0.060000 30.701813 1.352200
					CHANNELS 3 Xrotation Yrotation Zrotation
					JOINT mixamorig:Head
					{
						OFFSET -0.087200 22.547607 3.670900
						CHANNELS 3 Xrotation Yrotation Zrotation
						JOINT mixamorig:HeadTop_End
						{
							OFFSET -0.830600 40.355194 7.893500
							CHANNELS 3 Xrotation Yrotation Zrotation
							End Site
							{
								OFFSET 0.000000 30.592346 0.000000
							}
						}
						JOINT mixamorig:RightEye
						{
							OFFSET -6.302100 18.118591 16.197100
							CHANNELS 3 Xrotation Yrotation Zrotation
							End Site
							{
								OFFSET 0.000000 30.592346 0.000000
							}
						}
						JOINT mixamorig:LeftEye
						{
							OFFSET 6.741500 18.382690 16.401899
							CHANNELS 3 Xrotation Yrotation Zrotation
							End Site
							{
								OFFSET 0.000000 30.592346 0.000000
							}
						}
					}
				}
				JOINT mixamorig:LeftShoulder
				{
					OFFSET 11.924900 18.230499 1.425400
					CHANNELS 3 Xrotation Yrotation Zrotation
					JOINT mixamorig:LeftArm
					{
						OFFSET 25.435989 -0.697632 -5.229300
						CHANNELS 3 Xrotation Yrotation Zrotation
						JOINT mixamorig:LeftForeArm
						{
							OFFSET 54.684776 0.000000 0.000000
							CHANNELS 3 Xrotation Yrotation Zrotation
							JOINT mixamorig:LeftHand
							{
								OFFSET 55.098175 0.000000 0.000000
								CHANNELS 3 Xrotation Yrotation Zrotation
								JOINT mixamorig:LeftHandMiddle1
								{
									OFFSET 23.369751 0.000000 0.000000
									CHANNELS 3 Xrotation Yrotation Zrotation
									JOINT mixamorig:LeftHandMiddle2
									{
										OFFSET 6.378677 0.000000 0.000000
										CHANNELS 3 Xrotation Yrotation Zrotation
										JOINT mixamorig:LeftHandMiddle3
										{
											OFFSET 6.148331 0.000000 0.000000
											CHANNELS 3 Xrotation Yrotation Zrotation
											JOINT mixamorig:LeftHandMiddle4
											{
												OFFSET 6.582504 0.000000 0.000000
												CHANNELS 3 Xrotation Yrotation Zrotation
												End Site
												{
													OFFSET -1.168900 6.395691 1.028606
												}
											}
										}
									}
								}
								JOINT mixamorig:LeftHandThumb1
								{
									OFFSET 7.235672 -3.848206 5.434273
									CHANNELS 3 Xrotation Yrotation Zrotation
									JOINT mixamorig:LeftHandThumb2
									{
										OFFSET 6.568451 -3.792297 3.792300
										CHANNELS 3 Xrotation Yrotation Zrotation
										JOINT mixamorig:LeftHandThumb3
										{
											OFFSET 6.063080 -3.500519 3.500518
											CHANNELS 3 Xrotation Yrotation Zrotation
											JOINT mixamorig:LeftHandThumb4
											{
												OFFSET 4.793182 -2.767334 2.767349
												CHANNELS 3 Xrotation Yrotation Zrotation
												End Site
												{
													OFFSET 0.101639 6.054260 1.275483
												}
											}
										}
									}
								}
								JOINT mixamorig:LeftHandIndex1
								{
									OFFSET 23.101074 -0.309540 4.992809
									CHANNELS 3 Xrotation Yrotation Zrotation
									JOINT mixamorig:LeftHandIndex2
									{
										OFFSET 6.226883 0.000000 0.000000
										CHANNELS 3 Xrotation Yrotation Zrotation
										JOINT mixamorig:LeftHandIndex3
										{
											OFFSET 6.094330 0.000000 0.000000
											CHANNELS 3 Xrotation Yrotation Zrotation
											JOINT mixamorig:LeftHandIndex4
											{
												OFFSET 5.482605 0.000000 0.000000
												CHANNELS 3 Xrotation Yrotation Zrotation
												End Site
												{
													OFFSET -1.427902 5.233032 0.797164
												}
											}
										}
									}
								}
								JOINT mixamorig:LeftHandRing1
								{
									OFFSET 22.299240 0.021149 -3.964172
									CHANNELS 3 Xrotation Yrotation Zrotation
									JOINT mixamorig:LeftHandRing2
									{
										OFFSET 6.321869 0.000000 0.000000
										CHANNELS 3 Xrotation Yrotation Zrotation
										JOINT mixamorig:LeftHandRing3
										{
											OFFSET 5.899796 0.000000 0.000000
											CHANNELS 3 Xrotation Yrotation Zrotation
											JOINT mixamorig:LeftHandRing4
											{
												OFFSET 6.517899 0.000000 0.000000
												CHANNELS 3 Xrotation Yrotation Zrotation
												End Site
												{
													OFFSET -1.637299 6.232208 0.980890
												}
											}
										}
									}
								}
								JOINT mixamorig:LeftHandPinky1
								{
									OFFSET 20.463791 -0.302338 -8.562233
									CHANNELS 3 Xrotation Yrotation Zrotation
									JOINT mixamorig:LeftHandPinky2
									{
										OFFSET 6.908646 0.000000 0.000000
										CHANNELS 3 Xrotation Yrotation Zrotation
										JOINT mixamorig:LeftHandPinky3
										{
											OFFSET 4.622849 0.000000 0.000000
											CHANNELS 3 Xrotation Yrotation Zrotation
											JOINT mixamorig:LeftHandPinky4
											{
												OFFSET 5.216080 0.000000 0.000000
												CHANNELS 3 Xrotation Yrotation Zrotation
												End Site
												{
													OFFSET -0.606308 5.116241 0.814926
												}
											}
										}
									}
								}
							}
						}
					}
				}
				JOINT mixamorig:RightShoulder
				{
					OFFSET -12.001300 18.284088 1.348900
					CHANNELS 3 Xrotation Yrotation Zrotation
					JOINT mixamorig:RightArm
					{
						OFFSET -25.308500 -0.751312 -5.164599
						CHANNELS 3 Xrotation Yrotation Zrotation
						JOINT mixamorig:RightForeArm
						{
							OFFSET -54.684429 0.000000 0.000000
							CHANNELS 3 Xrotation Yrotation Zrotation
							JOINT mixamorig:RightHand
							{
								OFFSET -55.150291 0.000000 0.000000
								CHANNELS 3 Xrotation Yrotation Zrotation
								JOINT mixamorig:RightHandMiddle1
								{
									OFFSET -23.317566 0.000000 0.000000
									CHANNELS 3 Xrotation Yrotation Zrotation
									JOINT mixamorig:RightHandMiddle2
									{
										OFFSET -6.378403 0.000000 0.000000
										CHANNELS 3 Xrotation Yrotation Zrotation
										JOINT mixamorig:RightHandMiddle3
										{
											OFFSET -6.148193 0.000000 0.000000
											CHANNELS 3 Xrotation Yrotation Zrotation
											JOINT mixamorig:RightHandMiddle4
											{
												OFFSET -6.583389 0.000000 0.000000
												CHANNELS 3 Xrotation Yrotation Zrotation
												End Site
												{
													OFFSET 1.171692 6.395905 1.029786
												}
											}
										}
									}
								}
								JOINT mixamorig:RightHandThumb1
								{
									OFFSET -7.190521 -3.860474 5.435846
									CHANNELS 3 Xrotation Yrotation Zrotation
									JOINT mixamorig:RightHandThumb2
									{
										OFFSET -6.567429 -3.791718 3.791708
										CHANNELS 3 Xrotation Yrotation Zrotation
										JOINT mixamorig:RightHandThumb3
										{
											OFFSET -6.062469 -3.500153 3.500166
											CHANNELS 3 Xrotation Yrotation Zrotation
											JOINT mixamorig:RightHandThumb4
											{
												OFFSET -4.792618 -2.767029 2.767022
												CHANNELS 3 Xrotation Yrotation Zrotation
												End Site
												{
													OFFSET -0.100327 6.053253 1.276754
												}
											}
										}
									}
								}
								JOINT mixamorig:RightHandIndex1
								{
									OFFSET -23.048981 -0.310791 4.992554
									CHANNELS 3 Xrotation Yrotation Zrotation
									JOINT mixamorig:RightHandIndex2
									{
										OFFSET -6.227539 0.000000 0.000000
										CHANNELS 3 Xrotation Yrotation Zrotation
										JOINT mixamorig:RightHandIndex3
										{
											OFFSET -6.095047 0.000000 0.000000
											CHANNELS 3 Xrotation Yrotation Zrotation
											JOINT mixamorig:RightHandIndex4
											{
												OFFSET -5.484772 0.000000 0.000000
												CHANNELS 3 Xrotation Yrotation Zrotation
												End Site
												{
													OFFSET 1.420593 5.237305 0.797056
												}
											}
										}
									}
								}
								JOINT mixamorig:RightHandRing1
								{
									OFFSET -22.246323 0.020569 -3.963762
									CHANNELS 3 Xrotation Yrotation Zrotation
									JOINT mixamorig:RightHandRing2
									{
										OFFSET -6.322128 0.000000 0.000000
										CHANNELS 3 Xrotation Yrotation Zrotation
										JOINT mixamorig:RightHandRing3
										{
											OFFSET -5.900024 0.000000 0.000000
											CHANNELS 3 Xrotation Yrotation Zrotation
											JOINT mixamorig:RightHandRing4
											{
												OFFSET -6.518356 0.000000 0.000000
												CHANNELS 3 Xrotation Yrotation Zrotation
												End Site
												{
													OFFSET 1.636398 6.232697 0.982186
												}
											}
										}
									}
								}
								JOINT mixamorig:RightHandPinky1
								{
									OFFSET -20.411011 -0.303314 -8.561701
									CHANNELS 3 Xrotation Yrotation Zrotation
									JOINT mixamorig:RightHandPinky2
									{
										OFFSET -6.907349 0.000000 0.000000
										CHANNELS 3 Xrotation Yrotation Zrotation
										JOINT mixamorig:RightHandPinky3
										{
											OFFSET -4.623840 0.000000 0.000000
											CHANNELS 3 Xrotation Yrotation Zrotation
											JOINT mixamorig:RightHandPinky4
											{
												OFFSET -5.218353 0.000000 0.000000
												CHANNELS 3 Xrotation Yrotation Zrotation
												End Site
												{
													OFFSET 0.602097 5.118835 0.816273
												}
											}
										}
									}
								}
							}
						}
					}
				}
			}
		}
	}
	JOINT mixamorig:LeftUpLeg
	{
		OFFSET 18.168400 -13.561905 -0.039000
		CHANNELS 3 Xrotation Yrotation Zrotation
		JOINT mixamorig:LeftLeg
		{
			OFFSET 0.577358 -80.825211 -3.695000
			CHANNELS 3 Xrotation Yrotation Zrotation
			JOINT mixamorig:LeftFoot
			{
				OFFSET -0.577356 -83.370262 -6.520700
				CHANNELS 3 Xrotation Yrotation Zrotation
				JOINT mixamorig:LeftToeBase
				{
					OFFSET 0.750401 -20.798306 25.135401
					CHANNELS 3 Xrotation Yrotation Zrotation
					JOINT mixamorig:LeftToe_End
					{
						OFFSET -0.000500 0.001200 19.917799
						CHANNELS 3 Xrotation Yrotation Zrotation
						End Site
						{
							OFFSET 0.000000 19.917805 0.000000
						}
					}
				}
			}
		}
	}
	JOINT mixamorig:RightUpLeg
	{
		OFFSET -18.162500 -13.585098 -0.041000
		CHANNELS 3 Xrotation Yrotation Zrotation
		JOINT mixamorig:RightLeg
		{
			OFFSET -0.595024 -80.945297 -3.631900
			CHANNELS 3 Xrotation Yrotation Zrotation
			JOINT mixamorig:RightFoot
			{
				OFFSET 0.595024 -83.218193 -6.561200
				CHANNELS 3 Xrotation Yrotation Zrotation
				JOINT mixamorig:RightToeBase
				{
					OFFSET -0.753601 -20.807106 25.115000
					CHANNELS 3 Xrotation Yrotation Zrotation
					JOINT mixamorig:RightToe_End
					{
						OFFSET 0.000299 0.001700 19.918200
						CHANNELS 3 Xrotation Yrotation Zrotation
						End Site
						{
							OFFSET 0.000000 19.918203 0.000000
						}
					}
				}
			}
		}
	}
}
MOTION
Frames: 4
Frame Time: 0.033333
43.641369 275.269531 -3.017973 -1.151405 7.131540 -0.743438 -3.140958 0.558892 -0.327196 -6.283839 1.074990 -0.302392 -6.283837 1.074989 -0.302391 -27.504989 2.030520 -0.378824 -5.761232 -0.488089 3.376516 -0.000001 -0.000000 -0.000000 -0.000001 -0.000000 -0.000000 -0.000001 -0.000000 -0.000000 10.598089 0.894870 20.845415 -45.238286 -28.219246 4.926180 -22.817128 -34.689315 -2.613938 -7.413831 -4.329965 10.231596 -7.057153 -4.106623 -72.543986 -5.071170 -4.491932 -69.918420 -0.000003 0.000004 -0.000009 -0.000001 0.000000 0.000002 -23.505077 8.724704 4.055211 -11.818404 8.158944 13.633694 -0.000001 0.000017 0.000007 0.000000 0.000003 0.000001 -0.793943 -9.944904 -73.989875 -8.742891 -2.825316 -82.562309 -0.000004 0.000011 0.000001 -0.000001 0.000000 -0.000001 -10.868870 6.242565 -70.785635 -0.409499 -6.819500 -77.462446 -0.000001 -0.000003 0.000002 -0.000003 -0.000000 0.000002 -15.058366 6.363979 -69.029122 0.828513 -8.182926 -68.648667 -0.000004 -0.000000 0.000004 0.000002 0.000002 0.000000 -8.058741 1.733633 -25.618957 -52.575060 16.828404 5.496295 -7.018648 37.086595 -1.662389 12.279095 11.578776 9.986162 -14.295756 4.426659 46.404442 -2.770282 -0.174739 48.371577 -0.000001 -0.000002 -0.000003 0.000000 0.000000 -0.000001 -17.254332 9.298495 -26.078914 0.835213 -16.207282 1.137055 -0.000008 0.000000 -0.000011 0.000001 0.000001 -0.000000 -9.441343 11.982638 25.679959 -1.208955 -2.311624 25.974062 -0.000004 -0.000005 -0.000003 -0.000000 -0.000001 0.000000 -11.418452 -8.135324 52.017898 1.396503 6.427809 57.263391 -0.000009 0.000002 -0.000003 -0.000001 0.000000 0.000001 -16.312001 -12.278283 61.381756 1.724075 11.647136 64.450628 -0.000000 -0.000002 0.000005 -0.000001 -0.000001 -0.000003 -12.137820 16.383547 11.571759 16.434916 -5.037789 3.608762 32.267180 -4.541952 -4.725666 -0.000004 0.000003 -0.000006 -0.000003 0.000000 -0.000000 -23.374890 -7.389520 -8.660635 58.380461 -6.388917 10.835146 57.278458 0.235738 3.392937 -0.000025 0.000008 -0.000013 0.000000 0.000000 -0.000000 
45.368023 275.478882 -3.576090 -1.614272 8.411266 -1.336360 -3.171520 0.300421 -0.437573 -6.343861 0.552060 -0.478050 -6.343857 0.552056 -0.478051 -27.438081 1.281014 -0.481857 -5.683062 -1.080078 3.678845 -0.000004 0.000001 0.000002 -0.000004 0.000001 0.000002 -0.000004 0.000001 0.000002 9.632684 1.685669 21.112270 -46.256718 -30.869385 2.598468 -21.441977 -35.894987 -1.999882 -6.161804 -3.881440 10.749388 -7.057158 -4.106606 -72.543986 -5.071180 -4.491935 -69.918413 -0.000005 0.000005 -0.000006 -0.000000 -0.000000 -0.000000 -23.505075 8.724712 4.055240 -11.818404 8.158949 13.633694 -0.000001 0.000013 0.000005 -0.000002 -0.000002 -0.000000 -0.793930 -9.944895 -73.989875 -8.742909 -2.825330 -82.562295 -0.000005 0.000010 -0.000002 0.000000 0.000001 -0.000002 -10.868848 6.242575 -70.785615 -0.409513 -6.819513 -77.462453 -0.000000 -0.000001 -0.000000 -0.000000 0.000000 0.000001 -15.058376 6.363973 -69.029122 0.828524 -8.182902 -68.648688 -0.000002 -0.000003 0.000010 -0.000001 -0.000002 0.000001 -6.018894 -0.059146 -25.252543 -49.597258 18.209214 3.549138 -9.580613 41.653786 -0.628636 10.335368 3.977373 10.625826 -13.860676 4.848936 40.362368 -2.234004 -0.728941 39.750752 -0.000001 -0.000002 -0.000002 0.000000 -0.000000 -0.000000 -15.955120 14.032915 -25.492756 -2.679615 -10.336085 1.789289 -0.000008 0.000001 -0.000012 -0.000001 0.000000 -0.000000 -8.891727 13.445417 20.283488 -0.933846 -2.979249 18.785175 -0.000003 -0.000004 -0.000002 0.000001 -0.000001 -0.000003 -10.949713 -8.541075 45.620927 2.208073 5.778961 45.137066 -0.000009 -0.000000 -0.000003 -0.000000 0.000001 0.000001 -15.655058 -12.679295 54.588856 2.491369 11.188376 52.794480 0.000000 -0.000002 0.000005 -0.000001 -0.000001 0.000003 -12.054427 16.665284 10.897150 17.931258 -5.902645 3.769520 31.570046 -3.976231 -3.621525 -0.000000 0.000002 -0.000006 -0.000002 0.000002 -0.000002 -26.576618 -9.663167 -9.958634 62.764883 -2.280705 10.672154 55.752741 0.319086 4.374196 -0.000026 0.000008 -0.000008 -0.000000 0.000000 0.000002 
47.459023 275.033813 -4.038587 -1.970540 8.888577 -1.612472 -3.157420 0.206368 -0.506724 -6.315490 0.354012 -0.552127 -6.315483 0.354009 -0.552126 -27.389909 0.653266 -0.572352 -5.620173 -1.577513 3.921725 0.000003 -0.000000 0.000000 0.000003 -0.000000 0.000000 0.000003 -0.000000 0.000000 8.853891 2.563809 21.569573 -46.969674 -33.077069 0.830721 -20.789004 -36.119447 -1.469829 -5.381853 -3.915710 11.042172 -7.057132 -4.106603 -72.543972 -5.071196 -4.491962 -69.918434 -0.000004 0.000005 -0.000006 -0.000000 0.000001 -0.000002 -23.505065 8.724705 4.055222 -11.818414 8.158935 13.633694 0.000001 0.000015 0.000006 0.000001 -0.000001 -0.000001 -0.793909 -9.944904 -73.989868 -8.742892 -2.825324 -82.562309 -0.000004 0.000010 -0.000003 0.000001 -0.000000 0.000000 -10.868865 6.242562 -70.785608 -0.409509 -6.819495 -77.462453 -0.000000 -0.000003 0.000005 -0.000003 -0.000001 -0.000001 -15.058332 6.363991 -69.029129 0.828515 -8.182924 -68.648688 -0.000006 0.000001 0.000006 -0.000002 0.000000 0.000002 -4.036459 -1.700592 -24.848225 -50.024323 23.780026 2.642738 -14.383472 42.670323 -0.900957 8.417480 -3.276095 11.989225 -13.138486 4.845706 34.918003 -2.058982 -0.951616 36.588575 -0.000001 -0.000000 -0.000002 0.000000 -0.000001 -0.000000 -7.568744 17.720444 -27.115158 -7.053369 -7.403645 4.929336 -0.000007 0.000002 -0.000012 0.000000 0.000000 0.000000 -8.322180 14.274031 16.639545 -0.794944 -3.452780 13.873152 -0.000002 -0.000004 -0.000005 0.000001 -0.000000 0.000004 -10.606659 -8.904173 40.461662 2.696953 5.214916 36.435764 -0.000009 -0.000000 -0.000003 -0.000001 0.000001 0.000000 -15.037577 -13.164664 47.638380 3.050622 10.692345 43.030677 0.000001 -0.000006 0.000003 0.000000 -0.000002 -0.000002 -11.747964 17.082233 9.910159 19.275982 -6.137275 3.844825 31.142258 -3.367176 -2.758527 -0.000000 0.000002 -0.000005 -0.000001 0.000001 -0.000002 -29.302874 -10.745442 -11.409443 66.158490 0.345468 10.456801 53.193855 0.341521 5.443201 -0.000026 0.000008 -0.000011 0.000000 0.000000 0.000003 
49.975487 273.827637 -4.357896 -2.061870 9.002561 -1.808689 -3.077454 0.180449 -0.515028 -6.155646 0.295617 -0.522333 -6.155653 0.295615 -0.522334 -27.369657 0.233548 -0.640605 -5.585616 -1.912589 4.065004 -0.000003 -0.000000 -0.000001 -0.000003 -0.000000 -0.000001 -0.000003 -0.000000 -0.000001 8.331626 3.331308 22.253982 -47.156596 -34.181678 0.480878 -21.151434 -36.362851 -1.305797 -5.333954 -3.737104 11.049975 -7.057155 -4.106612 -72.543972 -5.071180 -4.491947 -69.918413 -0.000003 0.000004 -0.000001 -0.000000 -0.000001 0.000000 -23.505077 8.724701 4.055219 -11.818405 8.158937 13.633716 -0.000002 0.000014 0.000004 -0.000001 -0.000001 -0.000001 -0.793941 -9.944901 -73.989882 -8.742896 -2.825325 -82.562295 -0.000002 0.000010 0.000001 0.000001 0.000000 -0.000004 -10.868863 6.242569 -70.785635 -0.409483 -6.819491 -77.462446 -0.000002 -0.000001 0.000002 -0.000001 0.000001 0.000001 -15.058397 6.363978 -69.029129 0.828504 -8.182931 -68.648681 -0.000002 -0.000000 0.000005 0.000000 0.000001 -0.000001 -2.372248 -3.022850 -24.484435 -53.706317 31.745241 2.810416 -22.452051 40.217510 -0.006540 10.283970 -7.900787 12.578126 -12.343387 4.494730 30.190597 -1.886201 -1.199219 33.217443 -0.000001 0.000001 -0.000005 0.000002 0.000001 -0.000001 5.110057 19.884783 -30.791162 -10.886489 -8.002343 9.288388 -0.000007 0.000001 -0.000012 0.000000 0.000001 0.000000 -7.902647 14.681184 14.424608 -0.729009 -3.753774 10.805668 -0.000002 -0.000006 -0.000001 0.000001 -0.000000 -0.000002 -10.322238 -9.262414 35.732042 2.940494 4.853912 31.364656 -0.000010 0.000001 -0.000001 -0.000002 0.000001 -0.000001 -14.341510 -13.885664 38.731506 3.259221 10.456182 38.914306 0.000002 -0.000007 0.000004 -0.000002 0.000000 0.000000 -12.052321 17.694322 9.087404 21.317652 -6.398883 3.726780 30.411865 -2.542768 -1.891489 -0.000003 0.000001 -0.000006 -0.000000 -0.000000 -0.000000 -31.474943 -11.104677 -12.913400 68.326153 0.569677 9.945744 51.569352 0.552192 6.541017 -0.000026 0.000008 -0.000009 0.000000 0.000000 -0.000000 
